<?xml version="1.0" encoding="utf-8"?>
<!-- Generator: Adobe Illustrator 23.1.1, SVG Export Plug-In . SVG Version: 6.00 Build 0)  -->
<svg version="1.1" id="Laag_1" xmlns="http://www.w3.org/2000/svg" xmlns:xlink="http://www.w3.org/1999/xlink" x="0px" y="0px"
	 viewBox="0 0 15.4 11" style="enable-background:new 0 0 15.4 11;" xml:space="preserve">
<style type="text/css">
	.st0{clip-path:url(#SVGID_2_);}
	.st1{clip-path:url(#SVGID_4_);fill:#010202;}
</style>
<g>
	<defs>
		<path id="SVGID_1_" d="M7.7,5c0-0.5,0.4-1,1-1c0.6,0,1,0.5,1,1s-0.4,1-1,1C8.1,6,7.7,5.5,7.7,5z M9.8,9.4C8.2,10.1,6.6,10.2,5,9.6
			C2.1,8.4,2,4.2,5,3c0,0,0.1,0,0.1,0C4.4,3.6,4,4.5,4,5.4c0,1.8,1.5,3.3,3.4,3.3c1.9,0,3.4-1.5,3.4-3.3c0-1-0.4-1.8-1.1-2.4
			c0,0,0,0,0.1,0C12.4,4.2,12.5,8.2,9.8,9.4z M1.2,2.9c-1.6,1.4-1.6,3.9,0,5.3C2.8,9.6,5.1,11,7.7,11s4.9-1.4,6.5-2.9
			c1.6-1.4,1.6-3.9,0-5.3C12.5,1.4,10.2,0,7.7,0S2.8,1.4,1.2,2.9z"/>
	</defs>
	<clipPath id="SVGID_2_">
		<use xlink:href="#SVGID_1_"  style="overflow:visible;"/>
	</clipPath>
	<g class="st0">
		<defs>
			<rect id="SVGID_3_" x="-87.3" y="-1125" width="414" height="1361"/>
		</defs>
		<clipPath id="SVGID_4_">
			<use xlink:href="#SVGID_3_"  style="overflow:visible;"/>
		</clipPath>
		<rect x="-6.3" y="-5" class="st1" width="28" height="21"/>
	</g>
</g>
</svg>
