<?xml version="1.0" encoding="utf-8"?>
<!-- Generator: Adobe Illustrator 23.1.1, SVG Export Plug-In . SVG Version: 6.00 Build 0)  -->
<svg version="1.1" id="Laag_1" xmlns="http://www.w3.org/2000/svg" xmlns:xlink="http://www.w3.org/1999/xlink" x="0px" y="0px"
	 viewBox="0 0 20.9 19" style="enable-background:new 0 0 20.9 19;" xml:space="preserve">
<g>
	<defs>
		<path id="SVGID_1_" d="M7,6.2l3.8,3.8L15,6.2H12v-5C12,0.4,11.6,0,10.7,0C9.9,0,9.5,0.8,9.5,1.7v4.6H7z M12,13h2v5h-2V13z M7,13h2
			v5H7V13z M17,13v5h-2v-5H17z M4,13h2v5H4V13z M5.7,2L1,11.4V19h9.5H20v-7.6L15.2,2h-2.3v2.3h1.6l4,7.9h-4.7h-3.2H7.3H2.5l4-7.9
			h1.6V2H5.7z"/>
	</defs>
	<use xlink:href="#SVGID_1_"  style="overflow:visible;fill-rule:evenodd;clip-rule:evenodd;fill:#EA7A2F;"/>
	<clipPath id="SVGID_2_">
		<use xlink:href="#SVGID_1_"  style="overflow:visible;"/>
	</clipPath>
</g>
</svg>
