<?xml version="1.0" encoding="utf-8"?>
<!-- Generator: Adobe Illustrator 23.1.1, SVG Export Plug-In . SVG Version: 6.00 Build 0)  -->
<svg version="1.1" id="Laag_1" xmlns="http://www.w3.org/2000/svg" xmlns:xlink="http://www.w3.org/1999/xlink" x="0px" y="0px"
	 viewBox="0 0 14 12.6" style="enable-background:new 0 0 14 12.6;" xml:space="preserve">
<g>
	<defs>
		<path id="SVGID_1_" d="M13.4,4.4H9.3C9.1,4.4,8.9,4.3,8.8,4L7.5,0.4C7.5,0.1,7.2,0,7,0S6.5,0.1,6.5,0.4L5.2,4
			C5.1,4.3,4.9,4.4,4.7,4.4H0.6C0.3,4.4,0.1,4.5,0,4.8s0,0.5,0.2,0.6l3.3,2.3C3.7,7.8,3.8,8,3.8,8.2l-1.3,3.7
			c-0.1,0.2,0,0.3,0.1,0.5c0.1,0.1,0.3,0.2,0.5,0.2c0.1,0,0.2,0,0.3-0.1l3.3-2.3c0.2-0.1,0.5-0.1,0.7,0l3.3,2.3
			c0.1,0.1,0.2,0.1,0.3,0.1c0.2,0,0.4-0.1,0.5-0.2c0.1-0.1,0.1-0.3,0.1-0.5l-1.3-3.7c-0.1-0.2,0-0.5,0.2-0.6l3.3-2.3
			C14,5.2,14,5,14,4.8C13.9,4.5,13.7,4.4,13.4,4.4z"/>
	</defs>
	<use xlink:href="#SVGID_1_"  style="overflow:visible;fill-rule:evenodd;clip-rule:evenodd;fill:#FCD900;"/>
	<clipPath id="SVGID_2_">
		<use xlink:href="#SVGID_1_"  style="overflow:visible;"/>
	</clipPath>
</g>
</svg>
