<?xml version="1.0" encoding="utf-8"?>
<!-- Generator: Adobe Illustrator 23.1.1, SVG Export Plug-In . SVG Version: 6.00 Build 0)  -->
<svg version="1.1"
	 id="svg3336" xmlns:cc="http://creativecommons.org/ns#" xmlns:dc="http://purl.org/dc/elements/1.1/" xmlns:rdf="http://www.w3.org/1999/02/22-rdf-syntax-ns#" xmlns:svg="http://www.w3.org/2000/svg"
	 xmlns="http://www.w3.org/2000/svg" xmlns:xlink="http://www.w3.org/1999/xlink" x="0px" y="0px" viewBox="0 0 1068.9 475.3"
	 style="enable-background:new 0 0 1068.9 475.3;" xml:space="preserve">
<style type="text/css">
	.st0{fill:#ffffff;}
</style>
<g id="g3344" transform="matrix(1.25,0,0,-1.25,-581.41613,523.09812)">
	<g id="g3501" transform="matrix(8,0,0,8,-3255.9303,-267.4175)">
		<g id="g3392" transform="translate(544.998,60.8545)">
			<path id="path3394" class="st0" d="M0,0c0,6.6-4,12.4-12.9,12.4c-8.9,0-12.9-5.8-12.9-12.4c0,0,0,0,0,0l14.6-12.4
				C-3.5-11.7,0-6.1,0,0 M-16.8,0c0,2.5,0.5,5.8,3.9,5.8C-9.5,5.8-9,2.5-9,0c0-2.5-0.5-5.9-3.9-5.9C-16.4-5.9-16.8-2.5-16.8,0"/>
		</g>
		<g id="g3396" transform="translate(564.1641,48.9727)">
			<path id="path3398" class="st0" d="M0,0l7.9,23.7h-9.2L-5.1,9.3h-0.1l-3.7,14.4h-9.6L-10.7,0H0z"/>
		</g>
		<g id="g3400" transform="translate(497.8545,57.5117)">
			<path id="path3402" class="st0" d="M0,0v15.5v0.3l-5.3-0.5V0.4c0-2.5-1.5-4.1-3.9-4.1c-2.4,0-3.9,1.6-3.9,4.1v15.4l-5.3-0.5V0
				c0-5.2,3.9-9,9.2-9C-3.9-9,0-5.2,0,0"/>
		</g>
		<g id="g3404" transform="translate(470.0439,61.959)">
			<path id="path3406" class="st0" d="M0,0c0,10.4,8.4,18.8,18.8,18.8c5.4,0,10.4-2.3,13.8-6l9.5-8c-2.2,10.8-11.8,19-23.3,19
				C6.1,23.8-4.4,13.7-4.9,1l5.2-4.4C0.1-2.3,0-1.2,0,0"/>
		</g>
		<g id="g3408" transform="translate(507.7031,61.9795)">
			<path id="path3410" class="st0" d="M0,0c0-10.4-8.4-18.8-18.8-18.8c-4.7,0-9,1.7-12.2,4.5l0,0l-11,9.3
				c2.3-10.7,11.8-18.8,23.2-18.8c12.7,0,23.1,10,23.7,22.6l-5.2,4.4C-0.1,2.1,0,1.1,0,0"/>
		</g>
	</g>
</g>
</svg>
