<?xml version="1.0" encoding="utf-8"?>
<!-- Generator: Adobe Illustrator 23.1.1, SVG Export Plug-In . SVG Version: 6.00 Build 0)  -->
<svg version="1.1"
	 id="svg3336" xmlns:cc="http://creativecommons.org/ns#" xmlns:dc="http://purl.org/dc/elements/1.1/" xmlns:rdf="http://www.w3.org/1999/02/22-rdf-syntax-ns#" xmlns:svg="http://www.w3.org/2000/svg"
	 xmlns="http://www.w3.org/2000/svg" xmlns:xlink="http://www.w3.org/1999/xlink" x="0px" y="0px" viewBox="0 0 45.2 20.1"
	 style="enable-background:new 0 0 45.2 20.1;" xml:space="preserve">
<style type="text/css">
	.st0{fill:#FFFFFF;}
</style>
<g id="g3344" transform="matrix(1.25,0,0,-1.25,-581.41613,523.09812)">
	<g id="g3501" transform="matrix(8,0,0,8,-3255.9303,-267.4175)">
		<g id="g3392" transform="translate(544.998,60.8545)">
			<path id="path3394" class="st0" d="M-76.5,23.8c0,0.3-0.2,0.5-0.5,0.5c-0.4,0-0.5-0.2-0.5-0.5l0,0l0.6-0.5
				C-76.6,23.3-76.5,23.6-76.5,23.8 M-77.2,23.8c0,0.1,0,0.2,0.2,0.2c0.1,0,0.2-0.1,0.2-0.2s0-0.2-0.2-0.2
				C-77.2,23.6-77.2,23.7-77.2,23.8"/>
		</g>
		<g id="g3396" transform="translate(564.1641,48.9727)">
			<path id="path3398" class="st0" d="M-94.8,35.2l0.3,1h-0.4l-0.2-0.6h0l-0.2,0.6h-0.4l0.3-1H-94.8z"/>
		</g>
		<g id="g3400" transform="translate(497.8545,57.5117)">
			<path id="path3402" class="st0" d="M-31.3,27v0.7v0l-0.2,0V27c0-0.1-0.1-0.2-0.2-0.2s-0.2,0.1-0.2,0.2v0.7l-0.2,0V27
				c0-0.2,0.2-0.4,0.4-0.4S-31.3,26.8-31.3,27"/>
		</g>
		<g id="g3404" transform="translate(470.0439,61.959)">
			<path id="path3406" class="st0" d="M-4.7,22.8c0,0.4,0.4,0.8,0.8,0.8c0.2,0,0.4-0.1,0.6-0.3l0.4-0.3c-0.1,0.5-0.5,0.8-1,0.8
				c-0.5,0-1-0.4-1-1l0.2-0.2C-4.7,22.7-4.7,22.7-4.7,22.8"/>
		</g>
		<g id="g3408" transform="translate(507.7031,61.9795)">
			<path id="path3410" class="st0" d="M-40.8,22.8c0-0.4-0.4-0.8-0.8-0.8c-0.2,0-0.4,0.1-0.5,0.2l0,0l-0.5,0.4
				c0.1-0.5,0.5-0.8,1-0.8c0.5,0,1,0.4,1,1l-0.2,0.2C-40.8,22.8-40.8,22.8-40.8,22.8"/>
		</g>
	</g>
</g>
</svg>
