<?xml version="1.0" encoding="utf-8"?>
<!-- Generator: Adobe Illustrator 23.1.1, SVG Export Plug-In . SVG Version: 6.00 Build 0)  -->
<svg version="1.1" id="Laag_1" xmlns="http://www.w3.org/2000/svg" xmlns:xlink="http://www.w3.org/1999/xlink" x="0px" y="0px"
	 viewBox="0 0 12.7 12.7" style="enable-background:new 0 0 12.7 12.7;" xml:space="preserve">
<g>
	<path d="M11.6,12.7H1.1c-0.6,0-1.1-0.5-1.1-1.1l0-1.7c1-2,2.4-2.4,2.5-2.5l0.1,0h0.7c0.6,0,1.1-0.5,1.1-1c-0.7-0.8-1.1-2.1-1.1-3
		c0-2.2,1-3.4,3-3.4s3,1.1,3,3.4c0,1-0.5,2.2-1.1,3c0,0.6,0.5,1,1.1,1l0.9,0c0.1,0,1.5,0.4,2.5,2.5l0,0.2v1.5
		C12.7,12.2,12.2,12.7,11.6,12.7z M0.8,10.2v1.4c0,0.2,0.2,0.3,0.3,0.3h10.4c0.2,0,0.3-0.2,0.3-0.3v-1.4c-0.7-1.4-1.7-1.9-1.9-1.9
		H9.3c-1,0-1.9-0.8-1.9-1.9V6.1L7.6,6c0.6-0.7,1-1.8,1-2.6c0-1.8-0.7-2.6-2.2-2.6S4.2,1.6,4.2,3.4c0,0.8,0.4,1.9,1,2.6l0.1,0.1v0.2
		c0,1-0.8,1.9-1.9,1.9H2.7C2.5,8.3,1.5,8.8,0.8,10.2z"/>
</g>
</svg>
